<?xml version="1.0" standalone="no"?>
<!DOCTYPE svg PUBLIC "-//W3C//DTD SVG 20010904//EN"
 "http://www.w3.org/TR/2001/REC-SVG-20010904/DTD/svg10.dtd">
<svg version="1.0" xmlns="http://www.w3.org/2000/svg"
 width="215.000000pt" height="140.000000pt" viewBox="0 0 215.000000 140.000000"
 preserveAspectRatio="xMidYMid meet">
<metadata>
Created by potrace 1.15, written by Peter Selinger 2001-2017
</metadata>
<g transform="translate(0.000000,140.000000) scale(0.100000,-0.100000)"
fill="#000000" stroke="none">
<path d="M545 665 c-54 -53 -18 -155 55 -155 40 0 90 47 90 85 0 83 -90 126
-145 70z"/>
<path d="M1679 677 c-23 -17 -39 -52 -39 -82 0 -38 50 -85 90 -85 22 0 41 9
61 29 29 29 39 61 19 61 -5 0 -10 -5 -10 -10 0 -18 -48 -60 -68 -60 -11 0 -30
9 -43 21 -13 11 -19 18 -13 15 8 -4 101 51 132 79 2 2 -7 12 -19 24 -26 24
-84 28 -110 8z"/>
</g>
</svg>
